<?xml version="1.0" encoding="UTF-8" standalone="no"?>
<svg
   xmlns:dc="http://purl.org/dc/elements/1.1/"
   xmlns:cc="http://creativecommons.org/ns#"
   xmlns:rdf="http://www.w3.org/1999/02/22-rdf-syntax-ns#"
   xmlns:svg="http://www.w3.org/2000/svg"
   xmlns="http://www.w3.org/2000/svg"
   xmlns:sodipodi="http://sodipodi.sourceforge.net/DTD/sodipodi-0.dtd"
   xmlns:inkscape="http://www.inkscape.org/namespaces/inkscape"
   aria-hidden="true"
   focusable="false"
   data-prefix="far"
   data-icon="chart-bar"
   role="img"
   viewBox="0 0 512 384"
   class="svg-inline--fa fa-chart-bar fa-w-16 fa-9x"
   version="1.1"
   id="svg4"
   sodipodi:docname="chart.svg"
   inkscape:version="0.92.3 (2405546, 2018-03-11)"
   width="512"
   height="384">
  <metadata
     id="metadata10">
    <rdf:RDF>
      <cc:Work
         rdf:about="">
        <dc:format>image/svg+xml</dc:format>
        <dc:type
           rdf:resource="http://purl.org/dc/dcmitype/StillImage" />
        <dc:title></dc:title>
      </cc:Work>
    </rdf:RDF>
  </metadata>
  <defs
     id="defs8" />
  <sodipodi:namedview
     pagecolor="#ffffff"
     bordercolor="#666666"
     borderopacity="1"
     objecttolerance="10"
     gridtolerance="10"
     guidetolerance="10"
     inkscape:pageopacity="0"
     inkscape:pageshadow="2"
     inkscape:window-width="1920"
     inkscape:window-height="1015"
     id="namedview6"
     showgrid="false"
     inkscape:zoom="0.65186406"
     inkscape:cx="-72.191238"
     inkscape:cy="461.87042"
     inkscape:window-x="0"
     inkscape:window-y="0"
     inkscape:window-maximized="1"
     inkscape:current-layer="svg4"
     fit-margin-top="0"
     fit-margin-left="0"
     fit-margin-right="0"
     fit-margin-bottom="0" />
  <path
     d="m 396.8,288 h 22.4 c 6.4,0 12.8,-6.4 12.8,-12.8 V 44.8 C 432,38.4 425.6,32 419.2,32 H 396.8 C 390.4,32 384,38.4 384,44.8 v 230.4 c 0,6.4 6.4,12.8 12.8,12.8 z m -192,0 h 22.4 c 6.4,0 12.8,-6.4 12.8,-12.8 V 76.8 C 240,70.4 233.6,64 227.2,64 H 204.8 C 198.4,64 192,70.4 192,76.8 v 198.4 c 0,6.4 6.4,12.8 12.8,12.8 z m 96,0 h 22.4 c 6.4,0 12.8,-6.4 12.8,-12.8 V 140.8 c 0,-6.4 -6.4,-12.8 -12.8,-12.8 h -22.4 c -6.4,0 -12.8,6.4 -12.8,12.8 v 134.4 c 0,6.4 6.4,12.8 12.8,12.8 z M 496,336 H 48 V 16 C 48,7.16 40.84,0 32,0 H 16 C 7.16,0 0,7.16 0,16 v 336 c 0,17.67 14.33,32 32,32 h 464 c 8.84,0 16,-7.16 16,-16 v -16 c 0,-8.84 -7.16,-16 -16,-16 z M 108.8,288 h 22.4 c 6.4,0 12.8,-6.4 12.8,-12.8 v -70.4 c 0,-6.4 -6.4,-12.8 -12.8,-12.8 h -22.4 c -6.4,0 -12.8,6.4 -12.8,12.8 v 70.4 c 0,6.4 6.4,12.8 12.8,12.8 z"
     class=""
     id="path2"
     style="fill:#f85565;fill-opacity:1"
     inkscape:connector-curvature="0" />
</svg>
