<?xml version="1.0" encoding="UTF-8" standalone="no"?>
<svg
   xmlns:dc="http://purl.org/dc/elements/1.1/"
   xmlns:cc="http://creativecommons.org/ns#"
   xmlns:rdf="http://www.w3.org/1999/02/22-rdf-syntax-ns#"
   xmlns:svg="http://www.w3.org/2000/svg"
   xmlns="http://www.w3.org/2000/svg"
   xmlns:sodipodi="http://sodipodi.sourceforge.net/DTD/sodipodi-0.dtd"
   xmlns:inkscape="http://www.inkscape.org/namespaces/inkscape"
   aria-hidden="true"
   focusable="false"
   data-prefix="far"
   data-icon="pen"
   role="img"
   viewBox="0 0 512 512"
   class="svg-inline--fa fa-pen fa-w-16 fa-9x"
   version="1.1"
   id="svg4"
   sodipodi:docname="edit.svg"
   inkscape:version="0.92.3 (2405546, 2018-03-11)">
  <metadata
     id="metadata10">
    <rdf:RDF>
      <cc:Work
         rdf:about="">
        <dc:format>image/svg+xml</dc:format>
        <dc:type
           rdf:resource="http://purl.org/dc/dcmitype/StillImage" />
      </cc:Work>
    </rdf:RDF>
  </metadata>
  <defs
     id="defs8" />
  <sodipodi:namedview
     pagecolor="#ffffff"
     bordercolor="#666666"
     borderopacity="1"
     objecttolerance="10"
     gridtolerance="10"
     guidetolerance="10"
     inkscape:pageopacity="0"
     inkscape:pageshadow="2"
     inkscape:window-width="780"
     inkscape:window-height="480"
     id="namedview6"
     showgrid="false"
     inkscape:zoom="0.16296602"
     inkscape:cx="-417.15002"
     inkscape:cy="17.751953"
     inkscape:window-x="0"
     inkscape:window-y="0"
     inkscape:window-maximized="0"
     inkscape:current-layer="svg4" />
  <path
     fill="currentColor"
     d="M493.26 56.26l-37.51-37.51C443.25 6.25 426.87 0 410.49 0s-32.76 6.25-45.25 18.74l-74.49 74.49L256 127.98 12.85 371.12.15 485.34C-1.45 499.72 9.88 512 23.95 512c.89 0 1.79-.05 2.69-.15l114.14-12.61L384.02 256l34.74-34.74 74.49-74.49c25-25 25-65.52.01-90.51zM118.75 453.39l-67.58 7.46 7.53-67.69 231.24-231.24 31.02-31.02 60.14 60.14-31.02 31.02-231.33 231.33zm340.56-340.57l-44.28 44.28-60.13-60.14 44.28-44.28c4.08-4.08 8.84-4.69 11.31-4.69s7.24.61 11.31 4.69l37.51 37.51c6.24 6.25 6.24 16.4 0 22.63z"
     class=""
     id="path2"
     style="fill:#01a878;fill-opacity:1" />
</svg>
