<svg xmlns="http://www.w3.org/2000/svg" data-name="Layer 1" width="418.392" height="780.584"><path fill="#2f2e41" d="M98.772 86.853h197.715v224.382H98.772zM407.103 752.727H119.12V645.925a213.733 213.733 0 0113.178-73.483 198.39 198.39 0 011.335-3.567c12.76-33.166 29.352-52.638 29.352-52.638 116.337 64.844 186.903 5.722 186.903 5.722l12.625 50.921.916 3.7 33.585 135.448.916 3.719z"/><path d="M363.429 576.58c-43.331 10.547-81.723 14.17-114.087 14.17a397.596 397.596 0 01-60.191-4.443 324.327 324.327 0 01-56.853-13.865 198.39 198.39 0 011.335-3.567 319.11 319.11 0 0056.32 13.694c39.344 6.027 98.696 8.277 172.56-9.689zM397.93 715.747c-57.616 18.023-107.89 23.763-148.588 23.763a397.597 397.597 0 01-60.191-4.443c-32.765-5.054-56.662-13.312-70.032-18.824v-4.139c12.798 5.417 37 14.037 70.833 19.225 45.296 6.942 117.12 8.868 207.062-19.301z" fill="#3f3d56"/><path d="M406.15 271.165l-40.604 70.108v.019l-1.354 2.346-93.452 83.915-114.43-78.194-49.587-62.936s7.629-24.794 34.329-28.608c7.037-1.011 13.007-2.003 18.442-3.147 3.7-.782 7.152-1.621 10.528-2.575 10.47-2.956 20.14-6.98 33.967-13.35 24.793-11.443-7.629-47.68-7.629-47.68l66.751-41.957s29.638 96.312 81.609 95.454c.762 0 1.525-.038 2.307-.095 2.86-.21 5.588-.306 8.182-.325 45.81-.305 50.94 27.025 50.94 27.025z" fill="#ffb8b8"/><path d="M173.474 324.566l-13.98-69.898c3.7-.782 7.152-1.621 10.528-2.575zM355.209 244.14l-12.95 69.936 2.46-69.516c.763 0 1.526-.038 2.308-.095 2.86-.21 5.588-.306 8.182-.325z" fill="#3f3d56"/><circle cx="200.175" cy="126.22" r="72.473" fill="#ffb8b8"/><path d="M118.166 274.98l-11.443 11.442s-17.165 154.482 0 228.862l80.101 205.975s20.98 72.472 66.751 57.215c45.773-15.257-38.143-99.173-38.143-99.173l-59.123-162.11V315.03zM377.542 254l28.608 17.165s24.793 85.823 3.814 204.068L377.542 700.28s-19.072 85.823-59.122 64.844c-40.051-20.98 26.7-91.545 26.7-91.545l17.165-175.46 3.814-183.089z" fill="#ffb8b8"/><path d="M261.204 385.596l-89.637-74.38-19.072 45.772s-19.072 190.718-3.814 186.903c15.257-3.814 17.164-20.979 30.515-7.628 13.35 13.35 97.266 32.422 108.709 20.979 11.443-11.443 66.75-28.608 66.75-28.608s22.887-17.165 15.258-40.05c-7.628-22.887 0-26.701 1.907-36.237 1.908-9.536 0-110.616 0-110.616l-26.7-45.773z" fill="#3f3d56"/><path d="M263.6 258.815c16.93-2.103 31.611-12.864 43.637-31.984l-3.23-2.03c-11.381 18.095-25.128 28.265-40.857 30.227-27.95 3.483-53.162-20.214-53.414-20.453l-2.633 2.76c1.002.956 23.238 21.865 50.235 21.865l.052-.002v30.181a9.53 9.53 0 103.814.389v-30.732c.797-.06 1.593-.122 2.395-.221z" fill="#1da1f2"/><path d="M197.314 1.3s-73.335 9.168-89.753 53.41c-16.418 44.241-45.15 67.468-45.15 67.468s-45.26 31.46-22.63 87.623c0 0-70.406 47.313-23.888 89.343 0 0-2.736 42.029 24.627 70.786 0 0 21.891 11.06 13.682 17.697-8.21 6.636 54.727 2.212 49.255-57.514-5.473-59.726 31.468-101.798 31.468-101.798s-35.573-77.437-19.155-103.982c9.968-16.116 14.25-28.135 22.524-35.09a103.812 103.812 0 0012.774-12.467c5.096-6.055 15.411-14.3 31.743-9.9a45.98 45.98 0 0118.84 9.912 344.814 344.814 0 0052.871 38.607c8.845 5.249 18.108 11.18 26.708 17.5 15.925 11.703 2.768 36.507-13.155 57.272-23.559 30.723-24.024 73.883.617 103.744q1.086 1.316 2.216 2.582c24.094 26.983-6.944 50.504-8.742 53.528-4.105 6.903-20.497 50.492 47.215 50.685 0 0 15.72-32.988 37.612-52.897 21.89-19.908 5.472-77.422 5.472-77.422s32.837-19.909-2.736-68.574c0 0 18.816-59.233-11.284-87.99 0 0-48.095-128.008-141.131-112.523z" fill="#2f2e41"/><ellipse cx="279.322" cy="128.127" rx="9.536" ry="14.304" fill="#ffb8b8"/><path d="M280.276 188.25c-11.068 0-20.072-11.572-20.072-25.794 0-14.223 9.004-25.793 20.072-25.793a1 1 0 010 2c-9.965 0-18.072 10.673-18.072 23.793s8.107 23.793 18.072 23.793 18.072-10.673 18.072-23.793c0-11.697-4.193-20.253-11.219-22.888a1 1 0 01.703-1.873c7.837 2.94 12.516 12.197 12.516 24.761 0 14.222-9.004 25.793-20.072 25.793z" fill="#1da1f2"/><path d="M288.349 132.753a14.165 14.165 0 01-4.638 8.076" fill="#ffb8b8"/><path fill="#1da1f2" d="M177.684 698.018l39.482-19.44.96 1.952-39.48 19.44z"/><circle cx="198.073" cy="688.247" r="8.698" fill="#1da1f2"/></svg>