<svg data-name="Layer 1" id="Layer_1" viewBox="0 0 128 128" xmlns="http://www.w3.org/2000/svg"><defs><clipPath id="clip-path"><path d="M-238.64 215.63c18.48-15.4 36.72-30 54-37.07 7.84-2.31 12.84 2.94 13.8 9 .47 17.22-.21 32.92-3.12 45.67-2.59 7.52-7.84 11.77-15.3 10.52-16.59-3.82-33.04-15.35-49.38-28.12z" fill="none"/></clipPath><style>.cls-5{fill:none}.cls-4{fill:#393c54}.cls-5{stroke:#393c54;stroke-linecap:round;stroke-miterlimit:10;stroke-width:3px}</style></defs><path d="M111.88 37.41c-32.79-6.66-64.79-6.83-96-.18A17.61 17.61 0 002 54.48v11.69a29.5 29.5 0 0056.35 12.21A6.23 6.23 0 0164 74.67a6.23 6.23 0 015.65 3.72A29.5 29.5 0 00126 66.17v-11.5a17.64 17.64 0 00-14.12-17.26z" fill="#f85565"/><g opacity=".2"><path class="cls-4" d="M65.65 74.38a6.15 6.15 0 00-11.29 0A29.5 29.5 0 018.74 84.93a29.5 29.5 0 0049.62-6.55A6.23 6.23 0 0164 74.67a6 6 0 012 .33c-.14-.2-.26-.41-.35-.62zM126 54.7a17.64 17.64 0 00-7.35-14.33A17.6 17.6 0 01122 50.7v11.5a29.48 29.48 0 01-48.26 22.71A29.48 29.48 0 00126 66.17v-.5z"/></g><circle class="cls-4" cx="30" cy="64.67" r="14"/><path class="cls-5" d="M14.5 54.17s5 0 7 2"/><circle cx="30" cy="64.67" r="11" fill="#fff"/><path d="M30 58.67a.52.52 0 00-.46.75 3.92 3.92 0 01-4.75 4.77.52.52 0 00-.75.46 6 6 0 106-6z" fill="#356cb6"/><path class="cls-5" d="M82 65.67s21 8 29-5M97.5 75.17a18.71 18.71 0 01-7-7.33M106.5 72.17s-2.33-.33-5.67-4.17M113.5 65.17a10.05 10.05 0 01-5.83-.67M20.5 47.17a16.94 16.94 0 0111 5"/></svg>