<svg xmlns="http://www.w3.org/2000/svg" data-name="Layer 1" id="Layer_1" version="1.1" width="1957.379" height="1000"><defs id="defs7"><style id="style2">.cls-5{fill:none}.cls-4{fill:#393c54}.cls-5{stroke:#393c54;stroke-linecap:round;stroke-miterlimit:10;stroke-width:3px}</style></defs><g id="g860" transform="translate(-2 32.322)"><path id="path11" d="M1736.49 47.9C1218.89-57.23 713.76-59.912 221.1 45.06A277.98 277.98 0 002 317.355v184.53a465.667 465.667 0 00889.503 192.739 98.342 98.342 0 0189.187-58.564 98.342 98.342 0 0189.187 58.722 465.667 465.667 0 00889.502-192.897V320.355A278.453 278.453 0 001736.49 47.901z" fill="#f85565" stroke-width="15.785"/><g transform="matrix(15.7853 0 0 15.7853 -29.57 -542.628)" id="g17" opacity=".2"><path id="path13" d="M65.65 74.38a6.15 6.15 0 00-11.29 0A29.5 29.5 0 018.74 84.93a29.5 29.5 0 0049.62-6.55A6.23 6.23 0 0164 74.67a6 6 0 012 .33c-.14-.2-.26-.41-.35-.62z" class="cls-4" fill="#393c54"/><path id="path15" d="M126 54.7a17.64 17.64 0 00-7.35-14.33A17.6 17.6 0 01122 50.7v11.5a29.48 29.48 0 01-48.26 22.71A29.48 29.48 0 00126 66.17v-.5z" class="cls-4" fill="#393c54"/></g><circle r="220.994" id="circle19" cy="478.208" cx="443.989" class="cls-4" fill="#393c54" stroke-width="15.785"/><path id="path21" d="M199.317 312.462s78.927 0 110.497 31.571" class="cls-5" fill="none" stroke="#393c54" stroke-width="47.356" stroke-linecap="round" stroke-miterlimit="10"/><circle r="173.638" id="circle23" cy="478.208" cx="443.989" fill="#fff" stroke-width="15.785"/><path id="path25" d="M443.99 383.496a8.208 8.208 0 00-7.262 11.84 61.878 61.878 0 01-74.98 75.295 8.208 8.208 0 00-11.84 7.261 94.712 94.712 0 1094.713-94.711z" fill="#356cb6" stroke-width="15.785"/><path id="path27" d="M1264.825 493.993s331.492 126.283 457.774-78.926" class="cls-5" fill="none" stroke="#393c54" stroke-width="47.356" stroke-linecap="round" stroke-miterlimit="10"/><path id="path29" d="M1509.498 643.954A295.343 295.343 0 011399 528.248" class="cls-5" fill="none" stroke="#393c54" stroke-width="47.356" stroke-linecap="round" stroke-miterlimit="10"/><path id="path31" d="M1651.565 596.598s-36.78-5.21-89.502-65.825" class="cls-5" fill="none" stroke="#393c54" stroke-width="47.356" stroke-linecap="round" stroke-miterlimit="10"/><path id="path33" d="M1762.063 486.1a158.642 158.642 0 01-92.029-10.575" class="cls-5" fill="none" stroke="#393c54" stroke-width="47.356" stroke-linecap="round" stroke-miterlimit="10"/><path id="path35" d="M294.029 201.965a267.403 267.403 0 01173.638 78.927" class="cls-5" fill="none" stroke="#393c54" stroke-width="47.356" stroke-linecap="round" stroke-miterlimit="10"/></g></svg>