<?xml version="1.0" encoding="UTF-8" standalone="no"?>
<svg
   xmlns:dc="http://purl.org/dc/elements/1.1/"
   xmlns:cc="http://creativecommons.org/ns#"
   xmlns:rdf="http://www.w3.org/1999/02/22-rdf-syntax-ns#"
   xmlns:svg="http://www.w3.org/2000/svg"
   xmlns="http://www.w3.org/2000/svg"
   xmlns:sodipodi="http://sodipodi.sourceforge.net/DTD/sodipodi-0.dtd"
   xmlns:inkscape="http://www.inkscape.org/namespaces/inkscape"
   data-name="Layer 1"
   id="Layer_1"
   viewBox="0 0 1957.3792 1000"
   version="1.1"
   sodipodi:docname="new_logo.svg"
   width="1957.3792"
   height="1000"
   inkscape:version="0.92.3 (2405546, 2018-03-11)">
  <metadata
     id="metadata40">
    <rdf:RDF>
      <cc:Work
         rdf:about="">
        <dc:format>image/svg+xml</dc:format>
        <dc:type
           rdf:resource="http://purl.org/dc/dcmitype/StillImage" />
        <dc:title></dc:title>
      </cc:Work>
    </rdf:RDF>
  </metadata>
  <sodipodi:namedview
     pagecolor="#ffffff"
     bordercolor="#666666"
     borderopacity="1"
     objecttolerance="10"
     gridtolerance="10"
     guidetolerance="10"
     inkscape:pageopacity="0"
     inkscape:pageshadow="2"
     inkscape:window-width="1920"
     inkscape:window-height="1015"
     id="namedview38"
     showgrid="false"
     inkscape:zoom="0.32593203"
     inkscape:cx="1311.5531"
     inkscape:cy="168.0409"
     inkscape:window-x="0"
     inkscape:window-y="0"
     inkscape:window-maximized="1"
     inkscape:current-layer="Layer_1"
     fit-margin-top="0"
     fit-margin-left="0"
     fit-margin-right="0"
     fit-margin-bottom="0" />
  <defs
     id="defs7">
    <style
       id="style2">.cls-1,.cls-5{fill:none;}.cls-2{fill:#f85565;}.cls-3{opacity:0.2;}.cls-4{fill:#393c54;}.cls-5{stroke:#393c54;stroke-linecap:round;stroke-miterlimit:10;stroke-width:3px;}.cls-6{fill:#fff;}.cls-7{fill:#356cb6;}.cls-8{opacity:0.6;}.cls-9{clip-path:url(#clip-path);}</style>
  </defs>
  <g
     id="g860"
     transform="translate(-1.9999556,32.322064)">
    <path
       style="fill:#f85565;stroke-width:15.78530788"
       inkscape:connector-curvature="0"
       id="path11"
       d="M 1736.4903,47.90065 C 1218.89,-57.2295 713.76019,-59.913 221.10073,45.05929 A 277.97927,277.97927 0 0 0 2.0006567,317.35585 v 176.6376 0 c 0,2.6835 0,5.20915 0,7.89265 A 465.66658,465.66658 0 0 0 891.50276,694.62471 98.342468,98.342468 0 0 1 980.68975,636.06122 v 0 a 98.342468,98.342468 0 0 1 89.18695,58.72135 465.66658,465.66658 0 0 0 889.5021,-192.89647 c 0,-2.6835 0,-5.20915 0,-7.89265 v 0 -173.63839 A 278.45283,278.45283 0 0 0 1736.4903,47.90065 Z"
       class="cls-2" />
    <g
       transform="matrix(15.785308,0,0,15.785308,-29.569959,-542.62772)"
       style="opacity:0.2"
       id="g17"
       class="cls-3">
      <path
         style="fill:#393c54"
         inkscape:connector-curvature="0"
         id="path13"
         d="m 65.65,74.38 a 6.15,6.15 0 0 0 -11.29,0 A 29.5,29.5 0 0 1 8.74,84.93 29.5,29.5 0 0 0 58.36,78.38 6.23,6.23 0 0 1 64,74.67 6,6 0 0 1 66,75 c -0.14,-0.2 -0.26,-0.41 -0.35,-0.62 z"
         class="cls-4" />
      <path
         style="fill:#393c54"
         inkscape:connector-curvature="0"
         id="path15"
         d="M 126,54.7 A 17.64,17.64 0 0 0 118.65,40.37 17.6,17.6 0 0 1 122,50.7 v 11 0 c 0,0.17 0,0.33 0,0.5 A 29.48,29.48 0 0 1 73.74,84.91 29.48,29.48 0 0 0 126,66.17 c 0,-0.17 0,-0.33 0,-0.5 v 0 z"
         class="cls-4" />
    </g>
    <circle
       r="220.99431"
       style="fill:#393c54;stroke-width:15.78530788"
       id="circle19"
       cy="478.20789"
       cx="443.98929"
       class="cls-4" />
    <path
       style="fill:none;stroke:#393c54;stroke-width:47.3559227px;stroke-linecap:round;stroke-miterlimit:10"
       inkscape:connector-curvature="0"
       id="path21"
       d="m 199.31701,312.46241 c 0,0 78.92653,0 110.49715,31.57061"
       class="cls-5" />
    <circle
       r="173.63838"
       style="fill:#ffffff;stroke-width:15.78530788"
       id="circle23"
       cy="478.20789"
       cx="443.98929"
       class="cls-6" />
    <path
       style="fill:#356cb6;stroke-width:15.78530788"
       inkscape:connector-curvature="0"
       id="path25"
       d="m 443.98928,383.49629 v 0 a 8.2083601,8.2083601 0 0 0 -7.26124,11.83899 c 0,0 0,0 0,0 a 61.878407,61.878407 0 0 1 -74.98022,75.29591 v 0 a 8.2083601,8.2083601 0 0 0 -11.83898,7.26125 94.711847,94.711847 0 1 0 94.71185,-94.71185 z"
       class="cls-7" />
    <path
       style="fill:none;stroke:#393c54;stroke-width:47.3559227px;stroke-linecap:round;stroke-miterlimit:10"
       inkscape:connector-curvature="0"
       id="path27"
       d="m 1264.8253,493.99345 c 0,0 331.4915,126.28246 457.7739,-78.92654"
       class="cls-5" />
    <path
       style="fill:none;stroke:#393c54;stroke-width:47.3559227px;stroke-linecap:round;stroke-miterlimit:10"
       inkscape:connector-curvature="0"
       id="path29"
       d="M 1509.4976,643.95387 A 295.34311,295.34311 0 0 1 1399.0004,528.24757"
       class="cls-5" />
    <path
       style="fill:none;stroke:#393c54;stroke-width:47.3559227px;stroke-linecap:round;stroke-miterlimit:10"
       inkscape:connector-curvature="0"
       id="path31"
       d="m 1651.5653,596.59795 c 0,0 -36.7797,-5.20915 -89.5027,-65.82473"
       class="cls-5" />
    <path
       style="fill:none;stroke:#393c54;stroke-width:47.3559227px;stroke-linecap:round;stroke-miterlimit:10"
       inkscape:connector-curvature="0"
       id="path33"
       d="m 1762.0625,486.1008 a 158.64234,158.64234 0 0 1 -92.0284,-10.57616"
       class="cls-5" />
    <path
       style="fill:none;stroke:#393c54;stroke-width:47.3559227px;stroke-linecap:round;stroke-miterlimit:10"
       inkscape:connector-curvature="0"
       id="path35"
       d="m 294.02885,201.96525 a 267.40312,267.40312 0 0 1 173.63839,78.92654"
       class="cls-5" />
  </g>
</svg>
