<?xml version="1.0" encoding="UTF-8" standalone="no"?>
<svg
   xmlns:dc="http://purl.org/dc/elements/1.1/"
   xmlns:cc="http://creativecommons.org/ns#"
   xmlns:rdf="http://www.w3.org/1999/02/22-rdf-syntax-ns#"
   xmlns:svg="http://www.w3.org/2000/svg"
   xmlns="http://www.w3.org/2000/svg"
   xmlns:sodipodi="http://sodipodi.sourceforge.net/DTD/sodipodi-0.dtd"
   xmlns:inkscape="http://www.inkscape.org/namespaces/inkscape"
   id="a7790fef-454c-4c57-9844-77dbc4c0c9d6"
   data-name="Layer 1"
   width="418.39233"
   height="780.58447"
   viewBox="0 0 418.39232 780.58447"
   version="1.1"
   sodipodi:docname="undraw_jewelry_iima.svg"
   inkscape:version="0.92.3 (2405546, 2018-03-11)">
  <metadata
     id="metadata67">
    <rdf:RDF>
      <cc:Work
         rdf:about="">
        <dc:format>image/svg+xml</dc:format>
        <dc:type
           rdf:resource="http://purl.org/dc/dcmitype/StillImage" />
        <dc:title>jewelleries</dc:title>
      </cc:Work>
    </rdf:RDF>
  </metadata>
  <defs
     id="defs65" />
  <sodipodi:namedview
     pagecolor="#ffffff"
     bordercolor="#666666"
     borderopacity="1"
     objecttolerance="10"
     gridtolerance="10"
     guidetolerance="10"
     inkscape:pageopacity="0"
     inkscape:pageshadow="2"
     inkscape:window-width="1920"
     inkscape:window-height="1015"
     id="namedview63"
     showgrid="false"
     inkscape:zoom="0.76026059"
     inkscape:cx="331.95568"
     inkscape:cy="485.29359"
     inkscape:window-x="0"
     inkscape:window-y="0"
     inkscape:window-maximized="1"
     inkscape:current-layer="a7790fef-454c-4c57-9844-77dbc4c0c9d6"
     fit-margin-top="0"
     fit-margin-left="0"
     fit-margin-right="0"
     fit-margin-bottom="0" />
  <title
     id="title2">jewelleries</title>
  <rect
     x="98.77153"
     y="86.853378"
     width="197.71542"
     height="224.38173"
     id="rect8"
     style="fill:#2f2e41" />
  <path
     d="M 407.10325,752.72718 H 119.11951 v -106.8019 a 213.73271,213.73271 0 0 1 13.17843,-73.48358 c 0.43884,-1.20153 0.87746,-2.384 1.33516,-3.56641 12.75913,-33.16583 29.35148,-52.638 29.35148,-52.638 116.33778,64.844 186.90332,5.72153 186.90332,5.72153 l 12.6255,50.92164 0.91541,3.69993 33.58535,135.44761 0.91541,3.719 z"
     id="path10"
     inkscape:connector-curvature="0"
     style="fill:#2f2e41" />
  <path
     d="m 363.42881,576.58036 c -43.331,10.54663 -81.72248,14.17031 -114.08721,14.17031 a 397.59612,397.59612 0 0 1 -60.19061,-4.44376 324.32687,324.32687 0 0 1 -56.853,-13.86521 c 0.43884,-1.20153 0.87746,-2.384 1.33516,-3.56641 a 319.1093,319.1093 0 0 0 56.319,13.69352 c 39.34506,6.02674 98.69639,8.27719 172.56131,-9.68838 z"
     id="path12"
     inkscape:connector-curvature="0"
     style="fill:#3f3d56" />
  <path
     d="m 397.92957,715.74699 c -57.61573,18.02285 -107.88888,23.76347 -148.588,23.76347 a 397.59742,397.59742 0 0 1 -60.19061,-4.44376 c -32.76517,-5.05406 -56.66215,-13.312 -70.03148,-18.82382 v -4.13854 c 12.79708,5.41631 36.99928,14.03679 70.83258,19.22425 45.29544,6.94216 117.11979,8.86842 207.06207,-19.30062 z"
     id="path14"
     inkscape:connector-curvature="0"
     style="fill:#3f3d56" />
  <path
     d="m 406.14962,271.16504 -40.60387,70.10784 v 0.019 l -1.354,2.3459 -93.45168,83.91572 -114.43061,-78.19421 -49.5866,-62.93679 c 0,0 7.62871,-24.7933 34.32919,-28.60765 7.03737,-1.01086 13.00707,-2.00251 18.44225,-3.14689 3.7,-0.78189 7.15191,-1.621 10.52765,-2.57464 10.47038,-2.9561 20.1399,-6.98034 33.96693,-13.35024 24.7933,-11.44306 -7.62871,-47.67942 -7.62871,-47.67942 l 66.75119,-41.95789 c 0,0 29.6376,96.31243 81.60817,95.45418 0.76268,0 1.52583,-0.0382 2.30761,-0.0953 2.86076,-0.20976 5.58789,-0.30521 8.18186,-0.3243 45.81042,-0.30514 50.94062,27.02473 50.94062,27.02473 z"
     id="path16"
     inkscape:connector-curvature="0"
     style="fill:#ffb8b8" />
  <path
     d="M 173.47405,324.56599 159.4943,254.66792 c 3.7,-0.78189 7.15191,-1.621 10.52765,-2.57464 z"
     id="path18"
     inkscape:connector-curvature="0"
     style="fill:#3f3d56" />
  <path
     d="m 355.209,244.14027 -12.94981,69.93623 2.46034,-69.51661 c 0.76268,0 1.52583,-0.0382 2.30761,-0.0953 2.86076,-0.20974 5.58789,-0.30519 8.18186,-0.32428 z"
     id="path20"
     inkscape:connector-curvature="0"
     style="fill:#3f3d56" />
  <circle
     cx="200.17455"
     cy="126.21962"
     r="72.472717"
     id="circle22"
     style="fill:#ffb8b8" />
  <path
     d="m 118.16592,274.9794 -11.44306,11.4431 c 0,0 -17.164593,154.48132 0,228.86121 l 80.10139,205.97505 c 0,0 20.97894,72.47272 66.75119,57.2153 45.77225,-15.25742 -38.14354,-99.17319 -38.14354,-99.17319 l -59.12248,-162.11 V 315.03011 Z"
     id="path24"
     inkscape:connector-curvature="0"
     style="fill:#ffb8b8" />
  <path
     d="m 377.54196,254.0005 28.60766,17.16459 c 0,0 24.79329,85.823 3.81435,204.06792 l -32.422,225.04686 c 0,0 -19.07176,85.82295 -59.12247,64.844 -40.05071,-20.97895 26.70047,-91.54449 26.70047,-91.54449 l 17.16458,-175.4603 3.81435,-183.089 z"
     id="path26"
     inkscape:connector-curvature="0"
     style="fill:#ffb8b8" />
  <path
     d="M 261.20418,385.59565 171.56687,311.21576 152.49511,356.988 c 0,0 -19.07177,190.71768 -3.81436,186.90332 15.25741,-3.81436 17.16459,-20.97894 30.51483,-7.62871 13.35024,13.35023 97.266,32.422 108.70908,20.979 11.44308,-11.443 66.75118,-28.60765 66.75118,-28.60765 0,0 22.88612,-17.16459 15.25742,-40.05071 -7.6287,-22.88612 0,-26.70048 1.90717,-36.23636 1.90717,-9.53588 0,-110.61625 0,-110.61625 l -26.70047,-45.77225 z"
     id="path28"
     inkscape:connector-curvature="0"
     style="fill:#3f3d56" />
  <path
     d="m 263.59933,258.81496 c 16.92992,-2.10274 31.61183,-12.86413 43.63784,-31.98433 l -3.22953,-2.0301 c -11.3816,18.09583 -25.12855,28.26589 -40.85717,30.22708 -27.9502,3.48376 -53.16255,-20.21347 -53.414,-20.45279 l -2.63354,2.75926 c 1.002,0.95731 23.23813,21.86548 50.23474,21.86548 0.0172,0 0.0349,-0.002 0.0521,-0.002 V 289.379 a 9.52953,9.52953 0 1 0 3.81435,0.389 v -30.73224 c 0.79645,-0.0602 1.59313,-0.1213 2.39516,-0.22117 z"
     id="path30"
     inkscape:connector-curvature="0"
     style="fill:#1da1f2" />
  <path
     d="m 197.31376,1.2995043 c 0,0 -73.33458,9.1687497 -89.75276,53.4101897 -16.418183,44.24144 -45.150003,67.468186 -45.150003,67.468186 0,0 -45.25959,31.46062 -22.62975,87.62268 0,0 -70.40652,47.31373 -23.88836,89.3431 0,0 -2.73636,42.02937 24.62727,70.7863 0,0 21.8909,11.06036 13.68181,17.69657 -8.20909,6.63621 54.727253,2.21208 49.254533,-57.51386 -5.472723,-59.72594 31.46817,-101.79763 31.46817,-101.79763 0,0 -35.572723,-77.43692 -19.15454,-103.98178 9.96818,-16.11652 14.249,-28.134996 22.524,-35.090786 a 103.81179,103.81179 0 0 0 12.77433,-12.46686 c 5.09583,-6.05442 15.41066,-14.30039 31.74254,-9.8995 a 45.97971,45.97971 0 0 1 18.84058,9.9123 344.81354,344.81354 0 0 0 52.87052,38.606826 c 8.84473,5.24828 18.10747,11.17928 26.70747,17.49949 15.92542,11.70372 2.76857,36.50733 -13.15463,57.27272 -23.55861,30.72272 -24.02426,73.88224 0.617,103.7436 q 1.08625,1.31637 2.21559,2.58219 c 24.09431,26.98321 -6.94368,50.5037 -8.742,53.52807 -4.10455,6.90277 -20.49637,50.49148 47.21543,50.68457 0,0 15.7209,-32.988 37.61181,-52.89664 21.89091,-19.90864 5.47272,-77.42252 5.47272,-77.42252 0,0 32.83635,-19.90864 -2.73636,-68.57422 0,0 18.81574,-59.2326 -11.28425,-87.98954 -4e-5,0 -48.09479,-128.007926 -141.13112,-112.5234557 z"
     id="path32"
     inkscape:connector-curvature="0"
     style="fill:#2f2e41" />
  <ellipse
     cx="279.32236"
     cy="128.1268"
     rx="9.5358801"
     ry="14.30383"
     id="ellipse34"
     style="fill:#ffb8b8" />
  <path
     d="m 280.27581,188.24905 c -11.06738,0 -20.07177,-11.5708 -20.07177,-25.793 0,-14.22265 9.00439,-25.79345 20.07177,-25.79345 a 1,1 0 0 1 0,2 c -9.96484,0 -18.07177,10.67382 -18.07177,23.79345 0,13.11963 8.10693,23.793 18.07177,23.793 9.96484,0 18.07227,-10.67334 18.07227,-23.793 0,-11.69678 -4.19336,-20.25293 -11.21875,-22.88769 a 1.00034,1.00034 0 0 1 0.70312,-1.87305 c 7.83692,2.93994 12.51563,12.19629 12.51563,24.76074 0,14.2222 -9.00391,25.793 -20.07227,25.793 z"
     id="path36"
     inkscape:connector-curvature="0"
     style="fill:#1da1f2" />
  <path
     d="m 288.34856,132.75259 a 14.16536,14.16536 0 0 1 -4.6377,8.07662"
     id="path38"
     inkscape:connector-curvature="0"
     style="fill:#ffb8b8" />
  <rect
     x="-148.93286"
     y="704.71277"
     width="44.007881"
     height="2.1753299"
     transform="rotate(-26.21485)"
     id="rect40"
     style="fill:#1da1f2" />
  <circle
     cx="198.07292"
     cy="688.24719"
     r="8.6982298"
     id="circle42"
     style="fill:#1da1f2" />
</svg>
